<?xml version="1.0" encoding="utf-8"?>
<!-- Generator: Adobe Illustrator 19.0.0, SVG Export Plug-In . SVG Version: 6.00 Build 0)  -->
<svg version="1.1" xmlns="http://www.w3.org/2000/svg" xmlns:xlink="http://www.w3.org/1999/xlink" x="0px" y="0px" width="449.7px"
	 height="450.3px" viewBox="0 0 449.7 450.3" style="enable-background:new 0 0 449.7 450.3;" xml:space="preserve">
<style type="text/css">
	.st0{display:none;}
	.st1{fill:#FFFFFF;}
	.st2{fill:#41B6E6;}
	.st3{fill:#333333;}
</style>
<g id="Guides" class="st0">
</g>
<g id="grey_symbol__x23_333333_x2F_blue_border_x23_41B6E6">
	<g>
		<path class="st1" d="M224.6,425c-110.9,0-201.1-90.2-201.1-201.1c0-110.9,90.2-201.1,201.1-201.1c110.9,0,201.1,90.2,201.1,201.1
			C425.8,334.8,335.5,425,224.6,425z"/>
		<path class="st2" d="M224.6,37.4c102.8,0,186.5,83.7,186.5,186.5c0,102.8-83.7,186.5-186.5,186.5c-102.8,0-186.5-83.7-186.5-186.5
			C38.1,121,121.8,37.4,224.6,37.4 M224.6,8.1c-119,0-215.8,96.8-215.8,215.8c0,119,96.8,215.8,215.8,215.8
			c119,0,215.8-96.8,215.8-215.8C440.4,104.9,343.6,8.1,224.6,8.1L224.6,8.1z"/>
	</g>
	<polygon class="st1" points="294.8,179.1 198.8,272.4 161.4,252.2 201.7,325.3 294.8,179.1 	"/>
	<path class="st3" d="M269.8,160.8c-6.7-1.7-10.4-4.6-12.3-7.9c-2-3.3-2.3-7-2.3-10.2v-17.3V108l25.7,26.5l25.7,26.5l-18.4-0.1
		L269.8,160.8L269.8,160.8z M324.5,162.5l-36.2-36.2l-36.2-36.2l-0.3-0.3l-0.3-0.3h-2.9h-2.9h-45.2h-45.2c-8.7,0-16.7,3.3-22.4,8.7
		c-5.7,5.4-9.3,12.8-9.3,21v29v29l4.8,4.3l4.8,4.3v-33.3v-33.3c0-5.6,2.5-10.6,6.5-14.3c4-3.7,9.6-5.9,15.7-5.9h43.6h43.6v18.7v18.7
		v1.9v1.9c0,8.7,3.6,16.7,9.3,22.4c5.7,5.7,13.7,9.3,22.4,9.3H295h20.6v73.1v73.1c0,5.6-2.5,10.6-6.5,14.3c-4,3.7-9.6,5.9-15.7,5.9
		h-68.9h-68.9c-6.1,0-11.7-2.3-15.7-5.9c-4-3.7-6.5-8.7-6.5-14.3v-30.9v-30.9v-37.8V181l-4.8-4.7l-4.8-4.7v39.4v39.4v34v34
		c0,8.2,3.6,15.6,9.3,21c5.7,5.4,13.7,8.7,22.4,8.7h68.9h68.9c8.7,0,16.7-3.3,22.4-8.7c5.7-5.4,9.3-12.8,9.3-21v-74.7v-74.7V166
		v-2.9l-0.3-0.3L324.5,162.5L324.5,162.5z"/>
	<polygon class="st3" points="285,185.3 201.9,266.1 169.5,248.6 204.4,311.9 285,185.3 	"/>
</g>
</svg>
